{
	"asset":{
		"generator":"Khronos glTF Blender I/O v4.5.48",
		"version":"2.0"
	},
	"extensionsUsed":[
		"KHR_materials_unlit"
	],
	"scene":0,
	"scenes":[
		{
			"name":"Scene",
			"nodes":[
				0,
				1
			]
		}
	],
	"nodes":[
		{
			"mesh":0,
			"name":"Plane",
			"scale":[
				1.1676350831985474,
				1.1676350831985474,
				1.1676350831985474
			]
		},
		{
			"mesh":1,
			"name":"Suzanne",
			"rotation":[
				-0.03177983686327934,
				0.8632450103759766,
				0.11860388517379761,
				0.4896235466003418
			],
			"scale":[
				0.5259700417518616,
				0.5259700417518616,
				0.5259700417518616
			],
			"translation":[
				0,
				0.6502019762992859,
				0
			]
		}
	],
	"materials":[
		{
			"doubleSided":true,
			"extensions":{
				"KHR_materials_unlit":{}
			},
			"name":"Material.002",
			"pbrMetallicRoughness":{
				"baseColorTexture":{
					"index":0
				},
				"metallicFactor":0,
				"roughnessFactor":0.9
			}
		},
		{
			"doubleSided":true,
			"extensions":{
				"KHR_materials_unlit":{}
			},
			"name":"Material.001",
			"pbrMetallicRoughness":{
				"baseColorTexture":{
					"index":1
				},
				"metallicFactor":0,
				"roughnessFactor":0.9
			}
		}
	],
	"meshes":[
		{
			"name":"Plane",
			"primitives":[
				{
					"attributes":{
						"POSITION":0,
						"NORMAL":1,
						"TEXCOORD_0":2
					},
					"indices":3,
					"material":0
				}
			]
		},
		{
			"name":"Suzanne",
			"primitives":[
				{
					"attributes":{
						"POSITION":4,
						"NORMAL":5,
						"TEXCOORD_0":6
					},
					"indices":7,
					"material":1
				}
			]
		}
	],
	"textures":[
		{
			"sampler":0,
			"source":0
		},
		{
			"sampler":0,
			"source":1
		}
	],
	"images":[
		{
			"mimeType":"image/png",
			"name":"Background",
			"uri":"textures/Background.png"
		},
		{
			"mimeType":"image/png",
			"name":"Model_LightMap",
			"uri":"textures/Model_LightMap.png"
		}
	],
	"accessors":[
		{
			"bufferView":0,
			"componentType":5126,
			"count":48,
			"max":[
				1.5246013402938843,
				1.9414441585540771,
				1.3078930377960205
			],
			"min":[
				-1.0911846160888672,
				-0.08515417575836182,
				-1.3078930377960205
			],
			"type":"VEC3"
		},
		{
			"bufferView":1,
			"componentType":5126,
			"count":48,
			"type":"VEC3"
		},
		{
			"bufferView":2,
			"componentType":5126,
			"count":48,
			"type":"VEC2"
		},
		{
			"bufferView":3,
			"componentType":5123,
			"count":72,
			"type":"SCALAR"
		},
		{
			"bufferView":4,
			"componentType":5126,
			"count":1878,
			"max":[
				1.3359375,
				0.94921875,
				0.8251953125
			],
			"min":[
				-1.3359375,
				-0.974609375,
				-0.7734375
			],
			"type":"VEC3"
		},
		{
			"bufferView":5,
			"componentType":5126,
			"count":1878,
			"type":"VEC3"
		},
		{
			"bufferView":6,
			"componentType":5126,
			"count":1878,
			"type":"VEC2"
		},
		{
			"bufferView":7,
			"componentType":5123,
			"count":2868,
			"type":"SCALAR"
		}
	],
	"bufferViews":[
		{
			"buffer":0,
			"byteLength":576,
			"byteOffset":0,
			"target":34962
		},
		{
			"buffer":0,
			"byteLength":576,
			"byteOffset":576,
			"target":34962
		},
		{
			"buffer":0,
			"byteLength":384,
			"byteOffset":1152,
			"target":34962
		},
		{
			"buffer":0,
			"byteLength":144,
			"byteOffset":1536,
			"target":34963
		},
		{
			"buffer":0,
			"byteLength":22536,
			"byteOffset":1680,
			"target":34962
		},
		{
			"buffer":0,
			"byteLength":22536,
			"byteOffset":24216,
			"target":34962
		},
		{
			"buffer":0,
			"byteLength":15024,
			"byteOffset":46752,
			"target":34962
		},
		{
			"buffer":0,
			"byteLength":5736,
			"byteOffset":61776,
			"target":34963
		}
	],
	"samplers":[
		{
			"magFilter":9729,
			"minFilter":9987
		}
	],
	"buffers":[
		{
			"byteLength":67512,
			"uri":"ecperiment1.bin"
		}
	]
}
