{
	"asset":{
		"generator":"Khronos glTF Blender I/O v4.5.48",
		"version":"2.0"
	},
	"extensionsUsed":[
		"KHR_materials_specular",
		"KHR_materials_ior"
	],
	"scene":0,
	"scenes":[
		{
			"name":"Scene",
			"nodes":[
				0,
				1,
				2,
				3,
				4
			]
		}
	],
	"nodes":[
		{
			"mesh":0,
			"name":"Lightbar",
			"rotation":[
				0,
				-0.5418300032615662,
				0,
				0.8404881358146667
			],
			"translation":[
				-0.23367571830749512,
				-0.0010314956307411194,
				-6.305850028991699
			]
		},
		{
			"mesh":1,
			"name":"Pool_Day.far.",
			"rotation":[
				0,
				-0.5418300032615662,
				0,
				0.8404881358146667
			],
			"translation":[
				-0.23367571830749512,
				-0.0010314956307411194,
				-6.305850028991699
			]
		},
		{
			"mesh":2,
			"name":"Pool_Day.near.",
			"rotation":[
				0,
				-0.5418300032615662,
				0,
				0.8404881358146667
			],
			"translation":[
				-0.23367571830749512,
				-0.0010314956307411194,
				-6.305850028991699
			]
		},
		{
			"mesh":3,
			"name":"Skybox",
			"rotation":[
				0,
				-0.5418300628662109,
				0,
				0.840488076210022
			],
			"scale":[
				0.06480041146278381,
				0.06480041146278381,
				0.06480041146278381
			],
			"translation":[
				-0.23367571830749512,
				-0.0010314956307411194,
				-6.305850028991699
			]
		},
		{
			"mesh":4,
			"name":"Window_Alpha",
			"rotation":[
				0,
				-0.5418300032615662,
				0,
				0.8404881358146667
			],
			"translation":[
				-0.23367571830749512,
				-0.0010314956307411194,
				-6.305850028991699
			]
		}
	],
	"materials":[
		{
			"doubleSided":true,
			"extensions":{
				"KHR_materials_specular":{
					"specularFactor":0
				},
				"KHR_materials_ior":{
					"ior":1.4500000476837158
				}
			},
			"name":"material_2.001",
			"pbrMetallicRoughness":{
				"baseColorTexture":{
					"index":0
				},
				"metallicFactor":0
			}
		},
		{
			"doubleSided":true,
			"extensions":{
				"KHR_materials_specular":{
					"specularFactor":0.006060600280761719
				},
				"KHR_materials_ior":{
					"ior":1.4500000476837158
				}
			},
			"name":"Material.001",
			"pbrMetallicRoughness":{
				"baseColorTexture":{
					"index":1
				},
				"metallicFactor":0,
				"roughnessFactor":0.5
			}
		},
		{
			"doubleSided":true,
			"extensions":{
				"KHR_materials_specular":{
					"specularFactor":0.006060600280761719
				},
				"KHR_materials_ior":{
					"ior":1.4500000476837158
				}
			},
			"name":"Material",
			"pbrMetallicRoughness":{
				"baseColorTexture":{
					"index":2
				},
				"metallicFactor":0,
				"roughnessFactor":0.5
			}
		},
		{
			"extensions":{
				"KHR_materials_specular":{
					"specularFactor":0
				},
				"KHR_materials_ior":{
					"ior":1.4500000476837158
				}
			},
			"name":"material",
			"pbrMetallicRoughness":{
				"baseColorTexture":{
					"index":3
				},
				"metallicFactor":0,
				"roughnessFactor":0.5
			}
		},
		{
			"alphaMode":"BLEND",
			"doubleSided":true,
			"extensions":{
				"KHR_materials_specular":{
					"specularFactor":0
				},
				"KHR_materials_ior":{
					"ior":1.4500000476837158
				}
			},
			"name":"material_23",
			"pbrMetallicRoughness":{
				"baseColorTexture":{
					"index":4
				},
				"metallicFactor":0
			}
		}
	],
	"meshes":[
		{
			"name":"Pool_Day.001",
			"primitives":[
				{
					"attributes":{
						"POSITION":0,
						"NORMAL":1,
						"TEXCOORD_0":2
					},
					"indices":3,
					"material":0
				}
			]
		},
		{
			"name":"Pool_Day.004",
			"primitives":[
				{
					"attributes":{
						"POSITION":4,
						"NORMAL":5,
						"TEXCOORD_0":6
					},
					"indices":7,
					"material":1
				}
			]
		},
		{
			"name":"Pool_Day.003",
			"primitives":[
				{
					"attributes":{
						"POSITION":8,
						"NORMAL":9,
						"TEXCOORD_0":10
					},
					"indices":11,
					"material":2
				}
			]
		},
		{
			"name":"Material2.011",
			"primitives":[
				{
					"attributes":{
						"POSITION":12,
						"NORMAL":13,
						"TEXCOORD_0":14
					},
					"indices":15,
					"material":3
				}
			]
		},
		{
			"name":"Pool_Day.1981",
			"primitives":[
				{
					"attributes":{
						"POSITION":16,
						"NORMAL":17,
						"TEXCOORD_0":18
					},
					"indices":19,
					"material":4
				}
			]
		}
	],
	"textures":[
		{
			"sampler":0,
			"source":0
		},
		{
			"sampler":0,
			"source":1
		},
		{
			"sampler":0,
			"source":2
		},
		{
			"sampler":0,
			"source":3
		},
		{
			"sampler":0,
			"source":4
		}
	],
	"images":[
		{
			"mimeType":"image/png",
			"name":"Pool_Day_material_2.tga",
			"uri":"textures/Pool_Day_material_2.tga.png"
		},
		{
			"mimeType":"image/jpeg",
			"name":"far8",
			"uri":"textures/far8.jpg"
		},
		{
			"mimeType":"image/jpeg",
			"name":"near8",
			"uri":"textures/near8.jpg"
		},
		{
			"mimeType":"image/jpeg",
			"name":"sky",
			"uri":"textures/sky.jpg"
		},
		{
			"mimeType":"image/png",
			"name":"Pool_Day_material_23a",
			"uri":"textures/Pool_Day_material_23a.png"
		}
	],
	"accessors":[
		{
			"bufferView":0,
			"componentType":5126,
			"count":117,
			"max":[
				7.675440788269043,
				3.35074520111084,
				11.08423900604248
			],
			"min":[
				-4.8424272537231445,
				3.266446828842163,
				-13.951497077941895
			],
			"type":"VEC3"
		},
		{
			"bufferView":1,
			"componentType":5126,
			"count":117,
			"type":"VEC3"
		},
		{
			"bufferView":2,
			"componentType":5126,
			"count":117,
			"type":"VEC2"
		},
		{
			"bufferView":3,
			"componentType":5123,
			"count":177,
			"type":"SCALAR"
		},
		{
			"bufferView":4,
			"componentType":5126,
			"count":3139,
			"max":[
				13.913301467895508,
				4.046181678771973,
				13.65524959564209
			],
			"min":[
				-11.712503433227539,
				-1.01154363155365,
				-16.016735076904297
			],
			"type":"VEC3"
		},
		{
			"bufferView":5,
			"componentType":5126,
			"count":3139,
			"type":"VEC3"
		},
		{
			"bufferView":6,
			"componentType":5126,
			"count":3139,
			"type":"VEC2"
		},
		{
			"bufferView":7,
			"componentType":5123,
			"count":5829,
			"type":"SCALAR"
		},
		{
			"bufferView":8,
			"componentType":5126,
			"count":951,
			"max":[
				14.587663650512695,
				4.046181678771973,
				12.98088550567627
			],
			"min":[
				-11.712503433227539,
				-2.0230889320373535,
				-16.016735076904297
			],
			"type":"VEC3"
		},
		{
			"bufferView":9,
			"componentType":5126,
			"count":951,
			"type":"VEC3"
		},
		{
			"bufferView":10,
			"componentType":5126,
			"count":951,
			"type":"VEC2"
		},
		{
			"bufferView":11,
			"componentType":5123,
			"count":1929,
			"type":"SCALAR"
		},
		{
			"bufferView":12,
			"componentType":5126,
			"count":978,
			"max":[
				981.1829223632812,
				976.8850708007812,
				987.6687622070312
			],
			"min":[
				-974.9358520507812,
				-0.1395263671875,
				-968.4506225585938
			],
			"type":"VEC3"
		},
		{
			"bufferView":13,
			"componentType":5126,
			"count":978,
			"type":"VEC3"
		},
		{
			"bufferView":14,
			"componentType":5126,
			"count":978,
			"type":"VEC2"
		},
		{
			"bufferView":15,
			"componentType":5123,
			"count":5568,
			"type":"SCALAR"
		},
		{
			"bufferView":16,
			"componentType":5126,
			"count":63,
			"max":[
				13.913301467895508,
				3.456113576889038,
				13.65524959564209
			],
			"min":[
				-11.038140296936035,
				2.0230906009674072,
				-15.342371940612793
			],
			"type":"VEC3"
		},
		{
			"bufferView":17,
			"componentType":5126,
			"count":63,
			"type":"VEC3"
		},
		{
			"bufferView":18,
			"componentType":5126,
			"count":63,
			"type":"VEC2"
		},
		{
			"bufferView":19,
			"componentType":5123,
			"count":99,
			"type":"SCALAR"
		}
	],
	"bufferViews":[
		{
			"buffer":0,
			"byteLength":1404,
			"byteOffset":0,
			"target":34962
		},
		{
			"buffer":0,
			"byteLength":1404,
			"byteOffset":1404,
			"target":34962
		},
		{
			"buffer":0,
			"byteLength":936,
			"byteOffset":2808,
			"target":34962
		},
		{
			"buffer":0,
			"byteLength":354,
			"byteOffset":3744,
			"target":34963
		},
		{
			"buffer":0,
			"byteLength":37668,
			"byteOffset":4100,
			"target":34962
		},
		{
			"buffer":0,
			"byteLength":37668,
			"byteOffset":41768,
			"target":34962
		},
		{
			"buffer":0,
			"byteLength":25112,
			"byteOffset":79436,
			"target":34962
		},
		{
			"buffer":0,
			"byteLength":11658,
			"byteOffset":104548,
			"target":34963
		},
		{
			"buffer":0,
			"byteLength":11412,
			"byteOffset":116208,
			"target":34962
		},
		{
			"buffer":0,
			"byteLength":11412,
			"byteOffset":127620,
			"target":34962
		},
		{
			"buffer":0,
			"byteLength":7608,
			"byteOffset":139032,
			"target":34962
		},
		{
			"buffer":0,
			"byteLength":3858,
			"byteOffset":146640,
			"target":34963
		},
		{
			"buffer":0,
			"byteLength":11736,
			"byteOffset":150500,
			"target":34962
		},
		{
			"buffer":0,
			"byteLength":11736,
			"byteOffset":162236,
			"target":34962
		},
		{
			"buffer":0,
			"byteLength":7824,
			"byteOffset":173972,
			"target":34962
		},
		{
			"buffer":0,
			"byteLength":11136,
			"byteOffset":181796,
			"target":34963
		},
		{
			"buffer":0,
			"byteLength":756,
			"byteOffset":192932,
			"target":34962
		},
		{
			"buffer":0,
			"byteLength":756,
			"byteOffset":193688,
			"target":34962
		},
		{
			"buffer":0,
			"byteLength":504,
			"byteOffset":194444,
			"target":34962
		},
		{
			"buffer":0,
			"byteLength":198,
			"byteOffset":194948,
			"target":34963
		}
	],
	"samplers":[
		{
			"magFilter":9729,
			"minFilter":9987
		}
	],
	"buffers":[
		{
			"byteLength":195148,
			"uri":"scene.bin"
		}
	]
}
